# xmcd CD database file
#
# Track frame offsets:
#	150
#	20721
#	41896
#	62456
#	83323
#	105343
#	127719
#	148873
#	169542
#	191319
#
# Disc length: 2835 seconds
#
# Revision: 0
# Processed by: cddbd v1.5.2PL0 Copyright (c) Steve Scherf et al.
# Submitted via: CDex 1.70beta2
#
DISCID=720b110a
DTITLE=Various Artist - LOUNGE STYLE Opaline Green by Lawrence and Boost
DYEAR=2005
DGENRE=Jazz
TTITLE0=Instance
TTITLE1=Megalopolitan System
TTITLE2=Mah-na Mah-na(Piero Umiliani)
TTITLE3=Fjord Sunrise
TTITLE4=White Room
TTITLE5=Work Force Dance
TTITLE6=Horizon
TTITLE7=Comment Te Dire Adieu(Arnold Goland/Jack Gold)
TTITLE8=TV News
TTITLE9=Air Castle
EXTD=YEAR: 2005
EXTT0=
EXTT1=
EXTT2=
EXTT3=
EXTT4=
EXTT5=
EXTT6=
EXTT7=
EXTT8=
EXTT9=
PLAYORDER=
